<?xml version="1.0" encoding="UTF-8" standalone="no"?>
<!-- Generator: Adobe Illustrator 16.0.0, SVG Export Plug-In . SVG Version: 6.00 Build 0)  -->

<svg
   version="1.1"
   id="Capa_1"
   x="0px"
   y="0px"
   width="1800"
   height="583.04999"
   viewBox="0 0 1800 583.05"
   xml:space="preserve"
   sodipodi:docname="coding-caphe-logo.svg"
   inkscape:version="1.1.2 (b8e25be833, 2022-02-05)"
   xmlns:inkscape="http://www.inkscape.org/namespaces/inkscape"
   xmlns:sodipodi="http://sodipodi.sourceforge.net/DTD/sodipodi-0.dtd"
   xmlns="http://www.w3.org/2000/svg"
   xmlns:svg="http://www.w3.org/2000/svg"><defs
   id="defs48" /><sodipodi:namedview
   id="namedview46"
   pagecolor="#10ffff"
   bordercolor="#666666"
   borderopacity="1.0"
   inkscape:pageshadow="2"
   inkscape:pageopacity="0"
   inkscape:pagecheckerboard="0"
   showgrid="false"
   width="1000px"
   inkscape:zoom="0.3421662"
   inkscape:cx="-1158.7936"
   inkscape:cy="667.80412"
   inkscape:window-width="3200"
   inkscape:window-height="1321"
   inkscape:window-x="-543"
   inkscape:window-y="-1359"
   inkscape:window-maximized="1"
   inkscape:current-layer="g10" />
<g
   id="g13">
	<g
   id="Layer_1_37_"
   style="fill:#784421">
		<g
   id="g10"
   style="fill:#784421"
   transform="rotate(95.551491,530.839,514.14478)">
			<path
   d="m 197.36746,126.61454 c 30.6,-49.724982 73.95,-87.974963 122.399,-108.374955 -42.074,-80.32499 -118.574,-127.499995 -191.249,-122.399995 33.15,36.975005 61.2,100.7250062 66.3,206.54996 1.275,8.92499 2.55,16.57499 2.55,24.22499 z"
   id="path2"
   style="fill:#7a431d;fill-opacity:1" />
			<path
   d="m 135.81677,111.74952 c -5.1,-117.2999568 -42.074994,-165.749957 -71.400052,-186.149957 -71.3999727,47.175 -98.175,155.549963 -61.2000004,257.549947 29.3250004,79.05 89.2500484,133.874 153.0000524,151.725 -3.825,-30.601 -3.825,-62.476 2.55,-94.351 -11.475,-36.974 -20.4,-79.049 -22.95,-128.77399 z"
   id="path4"
   style="fill:#7a431d;fill-opacity:1" />
			<path
   d="m 481.69246,64.139564 c -29.325,20.39999 -66.301,68.849976 -71.4,184.874976 -5.1,105.825 -36.975,178.5 -77.775,228.225 5.101,0 10.2,1.275 15.301,1.275 79.05,0 159.375,-62.475 195.074,-156.825 36.975,-103.275 10.2,-210.375 -61.2,-257.549976 z"
   id="path6"
   style="fill:#563727;fill-opacity:1" />
			<path
   d="m 412.84246,41.189576 c -3.825,0 -7.649,0 -12.75,0 -79.05,0 -159.375,61.199974 -195.075,156.824964 -38.25,103.275 -10.2,210.375 61.2,257.55 39.525,-40.8 75.226,-104.55 79.05,-207.825 6.375,-107.1 34.425,-169.574983 67.575,-206.549964 z"
   id="path8"
   style="fill:#563727;fill-opacity:1" />
		<text
   xml:space="preserve"
   style="font-style:normal;font-weight:normal;font-size:1160px;line-height:1.25;font-family:sans-serif;fill:#000000;fill-opacity:1;stroke:none"
   x="-1101.948"
   y="722.76599"
   id="text6520"
   transform="rotate(-95.551491)"><tspan
     sodipodi:role="line"
     id="tspan6518"
     x="-1101.948"
     y="722.76599"
     style="font-style:normal;font-variant:normal;font-weight:normal;font-stretch:normal;font-size:1160px;font-family:impact;-inkscape-font-specification:impact;fill:#ffffff">&lt;</tspan></text><text
   xml:space="preserve"
   style="font-style:normal;font-weight:normal;font-size:1160px;line-height:1.25;font-family:sans-serif;fill:#000000;fill-opacity:1;stroke:none"
   x="-692.89093"
   y="210.86261"
   id="text6520-8"
   transform="rotate(84.168379)"><tspan
     sodipodi:role="line"
     id="tspan6518-8"
     x="-692.89093"
     y="210.86261"
     style="font-style:normal;font-variant:normal;font-weight:normal;font-stretch:normal;font-size:1160px;font-family:impact;-inkscape-font-specification:impact;fill:#ffffff">&lt;</tspan></text></g>
	</g>
</g>
<g
   id="g15">
</g>
<g
   id="g17">
</g>
<g
   id="g19">
</g>
<g
   id="g21">
</g>
<g
   id="g23">
</g>
<g
   id="g25">
</g>
<g
   id="g27">
</g>
<g
   id="g29">
</g>
<g
   id="g31">
</g>
<g
   id="g33">
</g>
<g
   id="g35">
</g>
<g
   id="g37">
</g>
<g
   id="g39">
</g>
<g
   id="g41">
</g>
<g
   id="g43">
</g>
</svg>
