<?xml version="1.0" encoding="UTF-8" standalone="no"?>
<!-- Created with Inkscape (http://www.inkscape.org/) -->

<svg
   width="210mm"
   height="297mm"
   viewBox="0 0 210 297"
   version="1.1"
   id="svg5"
   inkscape:version="1.1.2 (b8e25be833, 2022-02-05)"
   sodipodi:docname="LinkedIn-brown-new.svg"
   xmlns:inkscape="http://www.inkscape.org/namespaces/inkscape"
   xmlns:sodipodi="http://sodipodi.sourceforge.net/DTD/sodipodi-0.dtd"
   xmlns="http://www.w3.org/2000/svg"
   xmlns:svg="http://www.w3.org/2000/svg">
  <sodipodi:namedview
     id="namedview7"
     pagecolor="#ffffff"
     bordercolor="#666666"
     borderopacity="1.0"
     inkscape:pageshadow="2"
     inkscape:pageopacity="0.0"
     inkscape:pagecheckerboard="0"
     inkscape:document-units="mm"
     showgrid="false"
     inkscape:zoom="5.6872054"
     inkscape:cx="469.03528"
     inkscape:cy="571.01859"
     inkscape:window-width="1920"
     inkscape:window-height="991"
     inkscape:window-x="-9"
     inkscape:window-y="-9"
     inkscape:window-maximized="1"
     inkscape:current-layer="layer1" />
  <defs
     id="defs2" />
  <g
     inkscape:label="Layer 1"
     inkscape:groupmode="layer"
     id="layer1">
    <g
       id="Full"
       transform="matrix(0.26458333,0,0,0.26458333,100.90764,144.45276)"
       style="fill:#782121">
      <linearGradient
         gradientUnits="userSpaceOnUse"
         id="SVGID_2_"
         x1="16"
         x2="16"
         y1="31.293301"
         y2="0.70670003">
        <stop
           offset="0"
           style="stop-color:#FF2D76"
           id="stop23" />
        <stop
           offset="1"
           style="stop-color:#FB0000"
           id="stop25" />
      </linearGradient>
      <path
         d="M 32,31.292 V 19.46 c 0,-6.34 -3.384,-9.29 -7.896,-9.29 -3.641,0 -5.273,2.003 -6.182,3.409 v -2.924 h -6.86 c 0.091,1.937 0,20.637 0,20.637 h 6.86 V 19.767 c 0,-0.615 0.044,-1.232 0.226,-1.672 0.495,-1.233 1.624,-2.509 3.518,-2.509 2.483,0 3.475,1.892 3.475,4.666 V 31.293 H 32 Z M 3.835,7.838 C 6.226,7.838 7.717,6.252 7.717,4.271 7.673,2.247 6.227,0.707 3.881,0.707 1.535,0.707 0,2.246 0,4.271 0,6.252 1.489,7.838 3.792,7.838 Z m 3.43,23.454 V 10.655 H 0.406 v 20.637 z"
         fill="url(#SVGID_2_)"
         id="path28"
         style="fill:#782121" />
    </g>
  </g>
</svg>
