<?xml version="1.0" encoding="UTF-8" standalone="no"?>
<svg
   enable-background="new 0 0 64 64"
   height="64px"
   id="Layer_1"
   version="1.1"
   viewBox="0 0 64 64"
   width="64px"
   xml:space="preserve"
   sodipodi:docname="LinkedIn-brown.svg"
   inkscape:version="1.1.2 (b8e25be833, 2022-02-05)"
   xmlns:inkscape="http://www.inkscape.org/namespaces/inkscape"
   xmlns:sodipodi="http://sodipodi.sourceforge.net/DTD/sodipodi-0.dtd"
   xmlns="http://www.w3.org/2000/svg"
   xmlns:svg="http://www.w3.org/2000/svg"><defs
     id="defs15" /><sodipodi:namedview
     id="namedview13"
     pagecolor="#ffffff"
     bordercolor="#666666"
     borderopacity="1.0"
     inkscape:pageshadow="2"
     inkscape:pageopacity="0.0"
     inkscape:pagecheckerboard="0"
     showgrid="false"
     inkscape:zoom="3.1171875"
     inkscape:cx="147.40852"
     inkscape:cy="84.531328"
     inkscape:window-width="1920"
     inkscape:window-height="991"
     inkscape:window-x="-9"
     inkscape:window-y="-9"
     inkscape:window-maximized="1"
     inkscape:current-layer="Layer_1" /><g
     id="g10"><path
       d="M36.523,28.472c-2.124,0-3.075,1.168-3.606,1.988v-1.704h-4.002c0.052,1.128,0,12.041,0,12.041h4.002v-6.726   c0-0.36,0.025-0.72,0.131-0.976c0.29-0.72,0.948-1.465,2.054-1.465c1.448,0,2.027,1.105,2.027,2.723v6.443h4.002h0.001v-6.906   C41.132,30.193,39.157,28.472,36.523,28.472z M32.916,30.502H32.89c0.009-0.014,0.019-0.027,0.026-0.041V30.502z"
       id="path2" /><rect
       height="12.041"
       width="4.002"
       x="22.697"
       y="28.756"
       id="rect4" /><path
       d="M32,7.174C18.311,7.174,7.174,18.311,7.174,32c0,13.689,11.137,24.826,24.826,24.826c13.689,0,24.826-11.137,24.826-24.826   C56.826,18.311,45.689,7.174,32,7.174z M45.165,43.229c0,1.054-0.876,1.91-1.959,1.91H20.625c-1.08,0-1.957-0.855-1.957-1.91   V20.385c0-1.055,0.877-1.91,1.957-1.91h22.581c1.082,0,1.959,0.856,1.959,1.91V43.229z"
       id="path6"
       style="fill:#552200" /><path
       d="M24.725,22.951c-1.368,0-2.264,0.898-2.264,2.08c0,1.155,0.869,2.08,2.211,2.08h0.026c1.396,0,2.265-0.925,2.265-2.08   C26.936,23.85,26.095,22.951,24.725,22.951z"
       id="path8" /></g></svg>
